Coordinates
version=1
nRows=20
nColumns=35
inDegrees=yes

Units are S.I. units (second, meters, Newtons, ...)
If the header above contains a line with 'inDegrees', this indicates whether rotational values are in degrees (yes) or radians (no).

endheader
time	sternoclavicular_r2	sternoclavicular_r3	unrotscap_r3	unrotscap_r2	acromioclavicular_r2	acromioclavicular_r3	acromioclavicular_r1	unrothum_r1	unrothum_r3	unrothum_r2	elv_angle	shoulder_elv	shoulder1_r2	shoulder_rot	elbow_flexion	pro_sup	deviation	flexion	proximal_distal_r1	proximal_distal_r3	cmc_flexion	cmc_abduction	mp_flexion	ip_flexion	2mcp_flexion	2mcp_abduction	2pm_flexion	2md_flexion	FPLpt_tx	FPLpt_ty	FPLpt_tz	FPLpt2_tx	FPLpt2_ty	FPLpt2_tz
      2.79000000	     -6.67285233	      2.82630530	     -2.82630530	      6.67285233	     -1.35111686	     10.91925120	      4.90812826	     -4.90812826	    -10.91925120	      1.35111686	     16.03881463	     27.57370814	    -16.03881463	      7.53367110	     78.65259020	     41.31247353	      0.22003869	      0.03384918	     14.83925153	      0.96970750	      3.36700001	     11.40742031	    -27.65299999	    -34.18399999	     -0.41412815	      7.65299997	     26.93900001	     34.89800000	     -0.00004556	     -0.00013667	     -0.00007688	      0.00004241	     -0.00007788	     -0.00009345
      2.80000000	     -6.68415859	      2.83109410	     -2.83109410	      6.68415859	     -1.35340615	     10.93775242	      4.91644444	     -4.91644444	    -10.93775242	      1.35340615	     16.05203126	     27.62042813	    -16.05203126	      7.52763068	     78.55022413	     41.41102721	      0.20427485	      0.02107858	     13.92718222	      0.60385672	      3.36700001	     10.69237918	    -27.65299999	    -34.18399999	      1.68550872	      7.65299997	     26.93900001	     34.89800000	     -0.00002808	     -0.00008424	     -0.00004738	      0.00004241	     -0.00007788	     -0.00009345
      2.81000000	     -6.68672899	      2.83218280	     -2.83218280	      6.68672899	     -1.35392660	     10.94195854	      4.91833506	     -4.91833506	    -10.94195854	      1.35392660	     16.02496594	     27.63104959	    -16.02496594	      7.54635024	     78.54808207	     41.39158844	      0.20383205	      0.02119170	     13.90125351	      0.60709759	      3.36700001	     10.64066303	    -27.65299999	    -34.18399999	      1.71019261	      7.65299997	     26.93900001	     34.89800000	     -0.00002823	     -0.00008470	     -0.00004765	      0.00004241	     -0.00007788	     -0.00009345
      2.82000000	     -6.67866180	      2.82876592	     -2.82876592	      6.67866180	     -1.35229316	     10.92875765	      4.91240135	     -4.91240135	    -10.92875765	      1.35229316	     16.01042427	     27.59771419	    -16.01042427	      7.47626848	     78.51362106	     41.62108892	      0.20929261	      0.01589124	     14.22005228	      0.45525057	      3.36700001	     10.90232425	    -27.65299999	    -34.18399999	      1.07424363	      7.65299997	     26.93900001	     34.89800000	     -0.00002108	     -0.00006325	     -0.00003558	      0.00004241	     -0.00007788	     -0.00009345
      2.83000000	     -6.67998080	      2.82932459	     -2.82932459	      6.67998080	     -1.35256023	     10.93091601	      4.91337152	     -4.91337152	    -10.93091601	      1.35256023	     15.99437995	     27.60316458	    -15.99437995	      7.47034521	     78.50417734	     41.62016222	      0.20947773	      0.01599129	     14.23077799	      0.45811668	      3.36700001	     10.90923996	    -27.65299999	    -34.18399999	      1.05592236	      7.65299997	     26.93900001	     34.89800000	     -0.00002122	     -0.00006365	     -0.00003580	      0.00004241	     -0.00007788	     -0.00009345
      2.84000000	     -6.69166535	      2.83427361	     -2.83427361	      6.69166535	     -1.35492611	     10.95003625	      4.92196593	     -4.92196593	    -10.95003625	      1.35492611	     16.08250964	     27.65144773	    -16.08250964	      7.57541320	     78.50398259	     41.14886001	      0.21537815	      0.02067943	     14.57205321	      0.59242200	      3.36700001	     11.95124269	    -27.65299999	    -34.18399999	     -0.68835404	      7.65299997	     26.93900001	     34.89800000	     -0.00002754	     -0.00008261	     -0.00004647	      0.00004241	     -0.00007788	     -0.00009345
      2.85000000	     -6.68764631	      2.83257134	     -2.83257134	      6.68764631	     -1.35411234	     10.94345962	      4.91900978	     -4.91900978	    -10.94345962	      1.35411234	     16.06438577	     27.63484016	    -16.06438577	      7.60573428	     78.49187322	     41.15040901	      0.21536358	      0.02099297	     14.57118360	      0.60140427	      3.36700001	     11.94934086	    -27.65299999	    -34.18399999	     -0.67774286	      7.65299997	     26.93900001	     34.89800000	     -0.00002797	     -0.00008390	     -0.00004719	      0.00004241	     -0.00007788	     -0.00009345
      2.86000000	     -6.68265581	      2.83045760	     -2.83045760	      6.68265581	     -1.35310186	     10.93529331	      4.91533908	     -4.91533908	    -10.93529331	      1.35310186	     16.09629975	     27.61421830	    -16.09629975	      7.48214884	     78.55934627	     41.52363013	      0.21212491	      0.03242302	     14.38428772	      0.92885100	      3.36700001	     10.88184269	    -27.65299999	    -34.18399999	      0.17039922	      7.65299997	     26.93900001	     34.89800000	     -0.00004357	     -0.00013072	     -0.00007353	      0.00004241	     -0.00007788	     -0.00009345
      2.87000000	     -6.68451487	      2.83124501	     -2.83124501	      6.68451487	     -1.35347829	     10.93833543	      4.91670650	     -4.91670650	    -10.93833543	      1.35347829	     16.10974206	     27.62190037	    -16.10974206	      7.47610110	     78.53451422	     41.73032584	      0.20646645	      0.03043644	     14.05536461	      0.87193988	      3.36700001	     10.57911158	    -27.65299999	    -34.18399999	      0.37845576	      7.65299997	     26.93900001	     34.89800000	     -0.00004085	     -0.00012256	     -0.00006894	      0.00004241	     -0.00007788	     -0.00009345
      2.88000000	     -6.69226582	      2.83452795	     -2.83452795	      6.69226582	     -1.35504770	     10.95101885	      4.92240761	     -4.92240761	    -10.95101885	      1.35504770	     16.07481533	     27.65392902	    -16.07481533	      7.57733821	     78.54762983	     41.72766429	      0.21931203	      0.02952715	     14.79774619	      0.84589058	      3.36700001	     11.02897186	    -27.65299999	    -34.18399999	     -0.35206898	      7.65299997	     26.93900001	     34.89800000	     -0.00003959	     -0.00011878	     -0.00006681	      0.00004241	     -0.00007788	     -0.00009345
      2.89000000	     -6.68607065	      2.83190396	     -2.83190396	      6.68607065	     -1.35379330	     10.94088125	      4.91785082	     -4.91785082	    -10.94088125	      1.35379330	     16.04864527	     27.62832917	    -16.04864527	      7.52419451	     78.56481404	     41.65640294	      0.21773745	      0.03040758	     14.70756291	      0.87111287	      3.36700001	     10.83473304	    -27.65299999	    -34.18399999	     -0.28239268	      7.65299997	     26.93900001	     34.89800000	     -0.00004081	     -0.00012244	     -0.00006887	      0.00004241	     -0.00007788	     -0.00009345
      2.90000000	     -6.68905507	      2.83316802	     -2.83316802	      6.68905507	     -1.35439759	     10.94576487	      4.92004598	     -4.92004598	    -10.94576487	      1.35439759	     16.11401769	     27.64066148	    -16.11401769	      7.48905700	     78.51496186	     41.73901919	      0.20570711	      0.02968894	     14.01104765	      0.85052538	      3.36700001	     10.50545963	    -27.65299999	    -34.18399999	      0.05922317	      7.65299997	     26.93900001	     34.89800000	     -0.00003983	     -0.00011948	     -0.00006721	      0.00004241	     -0.00007788	     -0.00009345
      2.91000000	     -6.68960582	      2.83340129	     -2.83340129	      6.68960582	     -1.35450910	     10.94666610	      4.92045107	     -4.92045107	    -10.94666610	      1.35450910	     16.11276136	     27.64293729	    -16.11276136	      7.49796715	     78.50206640	     41.69214442	      0.20576085	      0.02960836	     14.01416916	      0.84821701	      3.36700001	     10.45401245	    -27.65299999	    -34.18399999	      0.05725358	      7.65299997	     26.93900001	     34.89800000	     -0.00003972	     -0.00011915	     -0.00006702	      0.00004241	     -0.00007788	     -0.00009345
      2.92000000	     -6.68860489	      2.83297735	     -2.83297735	      6.68860489	     -1.35430643	     10.94502822	      4.91971486	     -4.91971486	    -10.94502822	      1.35430643	     16.10768195	     27.63880125	    -16.10768195	      7.44978377	     78.47889337	     41.68908155	      0.20596835	      0.02949812	     14.02626779	      0.84505898	      3.36700001	     10.45549520	    -27.65299999	    -34.18399999	      0.05216573	      7.65299997	     26.93900001	     34.89800000	     -0.00003956	     -0.00011869	     -0.00006676	      0.00004241	     -0.00007788	     -0.00009345
      2.93000000	     -6.68323542	      2.83070309	     -2.83070309	      6.68323542	     -1.35321923	     10.93624178	      4.91576541	     -4.91576541	    -10.93624178	      1.35321923	     16.14169754	     27.61661340	    -16.14169754	      7.50466415	     78.51803118	     41.54255130	      0.21113677	      0.03075094	     14.32706352	      0.88094965	      3.36700001	     10.85063169	    -27.65299999	    -34.18399999	      0.02496244	      7.65299997	     26.93900001	     34.89800000	     -0.00004128	     -0.00012385	     -0.00006967	      0.00004241	     -0.00007788	     -0.00009345
      2.94000000	     -6.68898787	      2.83313956	     -2.83313956	      6.68898787	     -1.35438398	     10.94565490	      4.91999655	     -4.91999655	    -10.94565490	      1.35438398	     16.04343207	     27.64038379	    -16.04343207	      7.55912710	     78.54811018	     41.32693785	      0.21721431	      0.02665723	     14.67759524	      0.76367330	      3.36700001	     11.33934416	    -27.65299999	    -34.18399999	     -0.45036980	      7.65299997	     26.93900001	     34.89800000	     -0.00003567	     -0.00010700	     -0.00006019	      0.00004241	     -0.00007788	     -0.00009345
      2.95000000	     -6.68687735	      2.83224564	     -2.83224564	      6.68687735	     -1.35395664	     10.94220132	      4.91844419	     -4.91844419	    -10.94220132	      1.35395664	     16.04538119	     27.63166266	    -16.04538119	      7.61327949	     78.54423580	     41.32785151	      0.21711520	      0.02696515	     14.67186094	      0.77249464	      3.36700001	     11.33803468	    -27.65299999	    -34.18399999	     -0.43841370	      7.65299997	     26.93900001	     34.89800000	     -0.00003609	     -0.00010828	     -0.00006091	      0.00004241	     -0.00007788	     -0.00009345
      2.96000000	     -6.68353561	      2.83083024	     -2.83083024	      6.68353561	     -1.35328001	     10.93673299	      4.91598621	     -4.91598621	    -10.93673299	      1.35328001	     16.02857733	     27.61785384	    -16.02857733	      7.65044744	     78.58025095	     40.81366479	      0.22418337	      0.02349756	     15.07519234	      0.67315548	      3.36700001	     10.93279960	    -27.65299999	    -34.18399999	     -0.54741291	      7.65299997	     26.93900001	     34.89800000	     -0.00003136	     -0.00009409	     -0.00005293	      0.00004241	     -0.00007788	     -0.00009345
      2.97000000	     -6.67926299	      2.82902056	     -2.82902056	      6.67926299	     -1.35241489	     10.92974140	      4.91284354	     -4.91284354	    -10.92974140	      1.35241489	     16.01158459	     27.60019841	    -16.01158459	      7.64764749	     78.55139137	     41.19585062	      0.22225413	      0.01802634	     14.96558209	      0.51641674	      3.36700001	     11.80186299	    -27.65299999	    -34.18399999	     -0.59701287	      7.65299997	     26.93900001	     34.89800000	     -0.00002395	     -0.00007184	     -0.00004041	      0.00004241	     -0.00007788	     -0.00009345
      2.98000000	     -6.67812693	      2.82853938	     -2.82853938	      6.67812693	     -1.35218486	     10.92788240	      4.91200793	     -4.91200793	    -10.92788240	      1.35218486	     16.01342745	     27.59550397	    -16.01342745	      7.70647072	     78.58548387	     41.19258471	      0.22214329	      0.01832395	     14.95925916	      0.52494247	      3.36700001	     11.80443439	    -27.65299999	    -34.18399999	     -0.59478092	      7.65299997	     26.93900001	     34.89800000	     -0.00002436	     -0.00007307	     -0.00004110	      0.00004241	     -0.00007788	     -0.00009345
